<?xml version="1.0" encoding="UTF-8"?>
<!DOCTYPE svg PUBLIC "-//W3C//DTD SVG 1.1//EN" "http://www.w3.org/Graphics/SVG/1.1/DTD/svg11.dtd">
<svg version="1.2" width="36px" height="36px" viewBox="1000 15893 12742 12808" preserveAspectRatio="xMidYMid" fill-rule="evenodd" stroke-width="28.222" stroke-linejoin="round" xmlns="http://www.w3.org/2000/svg" xmlns:ooo="http://xml.openoffice.org/svg/export" xmlns:xlink="http://www.w3.org/1999/xlink" xmlns:presentation="http://sun.com/xmlns/staroffice/presentation" xmlns:smil="http://www.w3.org/2001/SMIL20/" xmlns:anim="urn:oasis:names:tc:opendocument:xmlns:animation:1.0" xmlns:svg="urn:oasis:names:tc:opendocument:xmlns:svg-compatible:1.0" xml:space="preserve">
 <g class="Page">
  <g class="com.sun.star.drawing.ClosedBezierShape">
   <g id="id3">
    <path fill="#FFF" stroke="none" d="M 2700,16421 L 2700,16421 C 2488,16421 2281,16477 2097,16582 1914,16688 1762,16840 1656,17024 1551,17207 1495,17414 1495,17626 L 1495,26967 1495,26967 C 1495,27179 1551,27386 1656,27570 1762,27753 1914,27905 2098,28011 2281,28116 2488,28172 2700,28172 L 12041,28172 12041,28172 C 12253,28172 12460,28116 12644,28011 12827,27905 12979,27753 13085,27570 13190,27386 13246,27179 13246,26967 L 13246,17626 13246,17626 13246,17626 C 13246,17414 13190,17207 13085,17024 12979,16840 12827,16688 12644,16582 12460,16477 12253,16421 12041,16421 L 2700,16421 Z M 6780,17505 L 7947,18600 C 7342,20226 6681,21768 6048,23159 L 8612,22768 10316,18237 11478,19404 10039,22447 11456,22002 C 11222,22502 10919,23016 10578,23342 L 9518,23494 C 8901,24768 8250,26025 7571,27172 7358,26927 7112,26731 6830,26611 6644,25419 6204,24594 5780,23756 L 4154,26991 3350,26393 C 4809,23510 5800,20566 6780,17505 Z M 2619,15893 L 2620,15893 C 2336,15893 2056,15968 1810,16110 1564,16252 1359,16457 1217,16703 1075,16949 1000,17229 1000,17513 L 1000,27080 C 1000,27364 1075,27644 1217,27890 1359,28136 1564,28341 1810,28483 2056,28625 2336,28700 2620,28700 L 12120,28700 12121,28700 C 12405,28700 12685,28625 12931,28483 13177,28341 13382,28136 13524,27890 13666,27644 13741,27364 13741,27080 L 13740,17513 13741,17513 C 13741,17229 13666,16949 13524,16703 13382,16457 13177,16252 12931,16110 12685,15968 12405,15893 12121,15893 L 2619,15893 Z M 6406,23887 C 7008,23817 7611,23746 8213,23676 L 7277,25731 C 7029,25062 6745,24502 6406,23887 Z"/>
   </g>
  </g>
 </g>
</svg>
